{
	"asset":{
		"generator":"Khronos glTF Blender I/O v4.4.56",
		"version":"2.0"
	},
	"scene":0,
	"scenes":[
		{
			"name":"Scene",
			"nodes":[
				0
			]
		}
	],
	"nodes":[
		{
			"mesh":0,
			"name":"Dove",
			"rotation":[
				0.33583706617355347,
				-0.3203734755516052,
				-0.6530928611755371,
				0.5983679294586182
			],
			"scale":[
				0.004970049951225519,
				0.004970051348209381,
				0.004970050882548094
			]
		}
	],
	"materials":[
		{
			"doubleSided":true,
			"name":"ThisOne",
			"pbrMetallicRoughness":{
				"baseColorTexture":{
					"index":0
				},
				"metallicFactor":0,
				"roughnessFactor":0.5
			}
		}
	],
	"meshes":[
		{
			"name":"Cylinder.003",
			"primitives":[
				{
					"attributes":{
						"POSITION":0,
						"NORMAL":1,
						"TEXCOORD_0":2
					},
					"indices":3,
					"material":0
				}
			]
		}
	],
	"textures":[
		{
			"sampler":0,
			"source":0
		}
	],
	"images":[
		{
			"bufferView":4,
			"mimeType":"image/png",
			"name":"TextureAtlas"
		}
	],
	"accessors":[
		{
			"bufferView":0,
			"componentType":5126,
			"count":1468,
			"max":[
				28.386985778808594,
				13.479385375976562,
				47.600223541259766
			],
			"min":[
				-7.815875053405762,
				-8.33819580078125,
				-11.327683448791504
			],
			"type":"VEC3"
		},
		{
			"bufferView":1,
			"componentType":5126,
			"count":1468,
			"type":"VEC3"
		},
		{
			"bufferView":2,
			"componentType":5126,
			"count":1468,
			"type":"VEC2"
		},
		{
			"bufferView":3,
			"componentType":5123,
			"count":2304,
			"type":"SCALAR"
		}
	],
	"bufferViews":[
		{
			"buffer":0,
			"byteLength":17616,
			"byteOffset":0,
			"target":34962
		},
		{
			"buffer":0,
			"byteLength":17616,
			"byteOffset":17616,
			"target":34962
		},
		{
			"buffer":0,
			"byteLength":11744,
			"byteOffset":35232,
			"target":34962
		},
		{
			"buffer":0,
			"byteLength":4608,
			"byteOffset":46976,
			"target":34963
		},
		{
			"buffer":0,
			"byteLength":40931,
			"byteOffset":51584
		}
	],
	"samplers":[
		{
			"magFilter":9729,
			"minFilter":9987
		}
	],
	"buffers":[
		{
			"byteLength":92516,
			"uri":"data:application/octet-stream;base64,"
		}
	]
}
