{
	"asset":{
		"generator":"Khronos glTF Blender I/O v4.4.56",
		"version":"2.0"
	},
	"scene":0,
	"scenes":[
		{
			"name":"Scene",
			"nodes":[
				0
			]
		}
	],
	"nodes":[
		{
			"mesh":0,
			"name":"Helmet"
		}
	],
	"materials":[
		{
			"doubleSided":true,
			"name":"ThisOne",
			"pbrMetallicRoughness":{
				"baseColorTexture":{
					"index":0
				},
				"metallicFactor":0,
				"roughnessFactor":0.5
			}
		}
	],
	"meshes":[
		{
			"name":"Cylinder.001",
			"primitives":[
				{
					"attributes":{
						"POSITION":0,
						"NORMAL":1,
						"TEXCOORD_0":2
					},
					"indices":3,
					"material":0
				}
			]
		}
	],
	"textures":[
		{
			"sampler":0,
			"source":0
		}
	],
	"images":[
		{
			"bufferView":4,
			"mimeType":"image/png",
			"name":"TextureAtlas"
		}
	],
	"accessors":[
		{
			"bufferView":0,
			"componentType":5126,
			"count":1664,
			"max":[
				0.1044325977563858,
				0.05002233386039734,
				0.10860490798950195
			],
			"min":[
				-0.10825547575950623,
				-0.05487692356109619,
				-0.09606705605983734
			],
			"type":"VEC3"
		},
		{
			"bufferView":1,
			"componentType":5126,
			"count":1664,
			"type":"VEC3"
		},
		{
			"bufferView":2,
			"componentType":5126,
			"count":1664,
			"type":"VEC2"
		},
		{
			"bufferView":3,
			"componentType":5123,
			"count":2676,
			"type":"SCALAR"
		}
	],
	"bufferViews":[
		{
			"buffer":0,
			"byteLength":19968,
			"byteOffset":0,
			"target":34962
		},
		{
			"buffer":0,
			"byteLength":19968,
			"byteOffset":19968,
			"target":34962
		},
		{
			"buffer":0,
			"byteLength":13312,
			"byteOffset":39936,
			"target":34962
		},
		{
			"buffer":0,
			"byteLength":5352,
			"byteOffset":53248,
			"target":34963
		},
		{
			"buffer":0,
			"byteLength":40931,
			"byteOffset":58600
		}
	],
	"samplers":[
		{
			"magFilter":9729,
			"minFilter":9987
		}
	],
	"buffers":[
		{
			"byteLength":99532,
			"uri":"data:application/octet-stream;base64,"
		}
	]
}
