{
	"asset":{
		"generator":"Khronos glTF Blender I/O v4.4.56",
		"version":"2.0"
	},
	"scene":0,
	"scenes":[
		{
			"name":"Scene",
			"nodes":[
				0
			]
		}
	],
	"nodes":[
		{
			"mesh":0,
			"name":"Poppy3",
			"rotation":[
				0.5339668989181519,
				-0.7931016683578491,
				-0.1960909217596054,
				0.21775543689727783
			],
			"scale":[
				0.013465260155498981,
				0.013465260155498981,
				0.013465262949466705
			]
		}
	],
	"materials":[
		{
			"doubleSided":true,
			"name":"ThisOne",
			"pbrMetallicRoughness":{
				"baseColorTexture":{
					"index":0
				},
				"metallicFactor":0,
				"roughnessFactor":0.5
			}
		},
		{
			"doubleSided":true,
			"name":"ThisOne.001",
			"pbrMetallicRoughness":{
				"baseColorTexture":{
					"index":1
				},
				"metallicFactor":0,
				"roughnessFactor":0.5
			}
		},
		{
			"doubleSided":true,
			"name":"ThisOne.002",
			"pbrMetallicRoughness":{
				"baseColorTexture":{
					"index":2
				},
				"metallicFactor":0,
				"roughnessFactor":0.5
			}
		}
	],
	"meshes":[
		{
			"name":"Cube.017",
			"primitives":[
				{
					"attributes":{
						"POSITION":0,
						"NORMAL":1,
						"TEXCOORD_0":2
					},
					"indices":3,
					"material":0
				},
				{
					"attributes":{
						"POSITION":4,
						"NORMAL":5,
						"TEXCOORD_0":6
					},
					"indices":7,
					"material":1
				},
				{
					"attributes":{
						"POSITION":8,
						"NORMAL":9,
						"TEXCOORD_0":10
					},
					"indices":11,
					"material":2
				}
			]
		}
	],
	"textures":[
		{
			"sampler":0,
			"source":0
		},
		{
			"sampler":0,
			"source":1
		},
		{
			"sampler":0,
			"source":1
		}
	],
	"images":[
		{
			"bufferView":4,
			"mimeType":"image/png",
			"name":"TextureAtlas"
		},
		{
			"bufferView":9,
			"mimeType":"image/png",
			"name":"TextureAtlas.png"
		}
	],
	"accessors":[
		{
			"bufferView":0,
			"componentType":5126,
			"count":544,
			"max":[
				13.180861473083496,
				6.154334545135498,
				2.023371696472168
			],
			"min":[
				-1.396166205406189,
				-3.5443387031555176,
				-3.7837600708007812
			],
			"type":"VEC3"
		},
		{
			"bufferView":1,
			"componentType":5126,
			"count":544,
			"type":"VEC3"
		},
		{
			"bufferView":2,
			"componentType":5126,
			"count":544,
			"type":"VEC2"
		},
		{
			"bufferView":3,
			"componentType":5123,
			"count":984,
			"type":"SCALAR"
		},
		{
			"bufferView":5,
			"componentType":5126,
			"count":544,
			"max":[
				12.376312255859375,
				3.763166904449463,
				5.158410549163818
			],
			"min":[
				-6.601777076721191,
				-5.0548787117004395,
				-0.5761532187461853
			],
			"type":"VEC3"
		},
		{
			"bufferView":6,
			"componentType":5126,
			"count":544,
			"type":"VEC3"
		},
		{
			"bufferView":7,
			"componentType":5126,
			"count":544,
			"type":"VEC2"
		},
		{
			"bufferView":8,
			"componentType":5123,
			"count":984,
			"type":"SCALAR"
		},
		{
			"bufferView":10,
			"componentType":5126,
			"count":556,
			"max":[
				9.444639205932617,
				-2.800079822540283,
				0.21340924501419067
			],
			"min":[
				-3.797314167022705,
				-8.168569564819336,
				-4.318807601928711
			],
			"type":"VEC3"
		},
		{
			"bufferView":11,
			"componentType":5126,
			"count":556,
			"type":"VEC3"
		},
		{
			"bufferView":12,
			"componentType":5126,
			"count":556,
			"type":"VEC2"
		},
		{
			"bufferView":13,
			"componentType":5123,
			"count":984,
			"type":"SCALAR"
		}
	],
	"bufferViews":[
		{
			"buffer":0,
			"byteLength":6528,
			"byteOffset":0,
			"target":34962
		},
		{
			"buffer":0,
			"byteLength":6528,
			"byteOffset":6528,
			"target":34962
		},
		{
			"buffer":0,
			"byteLength":4352,
			"byteOffset":13056,
			"target":34962
		},
		{
			"buffer":0,
			"byteLength":1968,
			"byteOffset":17408,
			"target":34963
		},
		{
			"buffer":0,
			"byteLength":40931,
			"byteOffset":19376
		},
		{
			"buffer":0,
			"byteLength":6528,
			"byteOffset":60308,
			"target":34962
		},
		{
			"buffer":0,
			"byteLength":6528,
			"byteOffset":66836,
			"target":34962
		},
		{
			"buffer":0,
			"byteLength":4352,
			"byteOffset":73364,
			"target":34962
		},
		{
			"buffer":0,
			"byteLength":1968,
			"byteOffset":77716,
			"target":34963
		},
		{
			"buffer":0,
			"byteLength":40931,
			"byteOffset":79684
		},
		{
			"buffer":0,
			"byteLength":6672,
			"byteOffset":120616,
			"target":34962
		},
		{
			"buffer":0,
			"byteLength":6672,
			"byteOffset":127288,
			"target":34962
		},
		{
			"buffer":0,
			"byteLength":4448,
			"byteOffset":133960,
			"target":34962
		},
		{
			"buffer":0,
			"byteLength":1968,
			"byteOffset":138408,
			"target":34963
		}
	],
	"samplers":[
		{
			"magFilter":9729,
			"minFilter":9987
		}
	],
	"buffers":[
		{
			"byteLength":140376,
			"uri":"data:application/octet-stream;base64,"
		}
	]
}
